<svg xmlns="http://www.w3.org/2000/svg" width="600" height="600"><g fill="#188cff"><path d="M66 324v-22h385c28 0 52-18 59-45 5-16 3-32-9-46a45 45 0 0 0-38-16c-15 2-29 15-31 30-1 12 2 21 12 27 7 4 15 5 24 1l6-6c3-5 10-7 15-4s7 9 4 15c-4 8-11 13-19 16-28 11-59-7-64-37a57 57 0 0 1 77-60c25 9 40 26 46 52 4 18 0 36-9 52a81 81 0 0 1-60 42l-14 1H66z"/><path d="M190 281H73v-19h202c14 0 24-6 27-19 2-8 0-20-6-27-4-5-13-8-21-7-6 0-13 6-14 13a11 11 0 0 0 15 12c4-1 8-1 11 2 5 6 2 14-5 16-17 7-37-4-39-23-2-13 4-27 16-34 9-5 24-6 35-2 14 5 24 18 27 35 3 10 1 21-5 31-7 13-17 19-33 22h-93zm332 91c7 14 6 27-2 39-8 11-19 17-33 16s-25-12-27-26a16 16 0 0 1 0-3l-1-3h1a10 10 0 0 1 9-9c5 0 9 4 10 9v2a14 14 0 0 0 1 4c2 5 7 7 13 6 8-2 14-9 13-18-1-10-8-19-19-21a12 12 0 0 0-2 0 41 41 0 0 0-3 0 90714 90714 0 0 0-289 0h-4v-20h295c17 0 30 8 38 24z"/></g></svg>