<svg xmlns="http://www.w3.org/2000/svg" viewBox="0 0 1200 1200">
  <path fill-rule="evenodd" d="M600 779 479 900l121 121 121-121zm-182 60a86 86 0 0 0 0 122l121 121c34 33 88 33 122 0l121-121c33-34 33-88 0-122L624 682a34 34 0 0 0-48 0zm361-239 121 121 121-121-121-121zm-97-24a34 34 0 0 0 0 48l157 158c34 33 88 33 122 0l121-121c33-34 33-88 0-122L961 418a86 86 0 0 0-122 0zm-82-397L479 300l121 121 121-121zm-182 60a86 86 0 0 0 0 122l158 157c13 14 35 14 48 0l158-157c33-34 33-88 0-122L661 118a86 86 0 0 0-122 0zM300 479 179 600l121 121 121-121zm-182 60a86 86 0 0 0 0 122l121 121c34 33 88 33 122 0l157-158c14-13 14-35 0-48L361 418a86 86 0 0 0-122 0z"/>
</svg>
